<mxfile host="Electron" modified="2024-03-06T07:55:20.193Z" agent="Mozilla/5.0 (Windows NT 10.0; Win64; x64) AppleWebKit/537.36 (KHTML, like Gecko) draw.io/21.6.5 Chrome/114.0.5735.243 Electron/25.3.1 Safari/537.36" etag="dIUPr54flTv4kax6umL6" version="21.6.5" type="device">
  <diagram name="Page-1" id="W10y5Xv-MgBhDv2cQMVb">
    <mxGraphModel dx="725" dy="2078" grid="1" gridSize="8" guides="0" tooltips="1" connect="1" arrows="0" fold="1" page="1" pageScale="1" pageWidth="2560" pageHeight="1440" background="#ffffff" math="0" shadow="0">
      <root>
        <mxCell id="0" />
        <mxCell id="1" parent="0" />
        <mxCell id="FjdLX2nBCPBoA4ZtYFne-67" value="" style="rounded=0;whiteSpace=wrap;html=1;fillColor=#333333;" parent="1" vertex="1">
          <mxGeometry x="96" y="688" width="32" height="192" as="geometry" />
        </mxCell>
        <mxCell id="FjdLX2nBCPBoA4ZtYFne-66" value="" style="rounded=0;whiteSpace=wrap;html=1;fillColor=#333333;" parent="1" vertex="1">
          <mxGeometry x="96" y="432" width="32" height="192" as="geometry" />
        </mxCell>
        <mxCell id="FjdLX2nBCPBoA4ZtYFne-65" value="" style="rounded=0;whiteSpace=wrap;html=1;fillColor=none;" parent="1" vertex="1">
          <mxGeometry x="32" y="800" width="352" height="64" as="geometry" />
        </mxCell>
        <mxCell id="FjdLX2nBCPBoA4ZtYFne-64" value="" style="rounded=0;whiteSpace=wrap;html=1;fillColor=none;" parent="1" vertex="1">
          <mxGeometry x="64" y="704" width="288" height="64" as="geometry" />
        </mxCell>
        <mxCell id="FjdLX2nBCPBoA4ZtYFne-63" value="" style="rounded=0;whiteSpace=wrap;html=1;" parent="1" vertex="1">
          <mxGeometry x="96" y="544" width="256" height="64" as="geometry" />
        </mxCell>
        <mxCell id="FjdLX2nBCPBoA4ZtYFne-62" value="" style="rounded=0;whiteSpace=wrap;html=1;" parent="1" vertex="1">
          <mxGeometry x="96" y="448" width="256" height="64" as="geometry" />
        </mxCell>
        <mxCell id="FjdLX2nBCPBoA4ZtYFne-2" value="The scaler shall take in different weights,&lt;br&gt;align them to match their MSB-s, shift according to magnitude, multiply and add them" style="shape=note;whiteSpace=wrap;html=1;backgroundOutline=1;darkOpacity=0.05;fillColor=#FFE599;verticalAlign=top;align=left;" parent="1" vertex="1">
          <mxGeometry x="32" y="128" width="320" height="64" as="geometry" />
        </mxCell>
        <mxCell id="FjdLX2nBCPBoA4ZtYFne-3" value="&lt;font style=&quot;font-size: 48px;&quot;&gt;Scaler&lt;/font&gt;" style="rounded=0;whiteSpace=wrap;html=1;fontSize=48;strokeColor=#000000;fillColor=#333333;strokeWidth=2;fontStyle=1;fontColor=#F5F5F5;labelBackgroundColor=none;labelBorderColor=none;align=center;" parent="1" vertex="1">
          <mxGeometry x="32" y="32" width="2432" height="64" as="geometry" />
        </mxCell>
        <mxCell id="FjdLX2nBCPBoA4ZtYFne-5" value="Parameters of a single weight:&lt;br&gt;&amp;nbsp; - Width&lt;br&gt;&amp;nbsp; - Magnitude&lt;br&gt;&amp;nbsp; - Multiply Group" style="shape=note;whiteSpace=wrap;html=1;backgroundOutline=1;darkOpacity=0.05;fillColor=#FFE599;verticalAlign=top;align=left;" parent="1" vertex="1">
          <mxGeometry x="416" y="128" width="192" height="64" as="geometry" />
        </mxCell>
        <mxCell id="FjdLX2nBCPBoA4ZtYFne-6" value="&lt;font style=&quot;font-size: 18px;&quot;&gt;Example&lt;/font&gt;" style="rounded=0;whiteSpace=wrap;html=1;fontSize=18;strokeColor=#000000;fillColor=#333333;strokeWidth=2;fontStyle=0;fontColor=#F5F5F5;labelBackgroundColor=none;labelBorderColor=none;align=left;" parent="1" vertex="1">
          <mxGeometry x="32" y="224" width="1184" height="32" as="geometry" />
        </mxCell>
        <mxCell id="FjdLX2nBCPBoA4ZtYFne-7" value="W0 (weight 0):&lt;br&gt;&amp;nbsp; - DWIDTH = 8&lt;br&gt;&amp;nbsp; - MAG = 0&lt;br&gt;&amp;nbsp; - GRP = 0" style="rounded=0;whiteSpace=wrap;html=1;verticalAlign=top;align=left;fillColor=#C3ABD0;" parent="1" vertex="1">
          <mxGeometry x="32" y="288" width="128" height="64" as="geometry" />
        </mxCell>
        <mxCell id="FjdLX2nBCPBoA4ZtYFne-8" value="W1:&lt;br&gt;&amp;nbsp; - DWIDTH = 4&lt;br&gt;&amp;nbsp; - MAG = 1&lt;br&gt;&amp;nbsp; - GRP = 0" style="rounded=0;whiteSpace=wrap;html=1;verticalAlign=top;align=left;fillColor=#A9C4EB;" parent="1" vertex="1">
          <mxGeometry x="160" y="288" width="128" height="64" as="geometry" />
        </mxCell>
        <mxCell id="FjdLX2nBCPBoA4ZtYFne-9" value="W2:&lt;br&gt;&amp;nbsp; - DWIDTH = 8&lt;br&gt;&amp;nbsp; - MAG = -1&lt;br&gt;&amp;nbsp; - GRP = 1" style="rounded=0;whiteSpace=wrap;html=1;verticalAlign=top;align=left;fillColor=#B9E0A5;" parent="1" vertex="1">
          <mxGeometry x="288" y="288" width="128" height="64" as="geometry" />
        </mxCell>
        <mxCell id="FjdLX2nBCPBoA4ZtYFne-10" value="W3:&lt;br&gt;&amp;nbsp; - DWIDTH = 6&lt;br&gt;&amp;nbsp; - MAG = 2&lt;br&gt;&amp;nbsp; - GRP = 1" style="rounded=0;whiteSpace=wrap;html=1;verticalAlign=top;align=left;fillColor=#FFCE9F;" parent="1" vertex="1">
          <mxGeometry x="416" y="288" width="128" height="64" as="geometry" />
        </mxCell>
        <mxCell id="FjdLX2nBCPBoA4ZtYFne-12" value="The largest data width is 8. All weight shall be aligned to match it&#39;s MSB" style="text;html=1;strokeColor=default;fillColor=none;align=left;verticalAlign=top;whiteSpace=wrap;rounded=0;" parent="1" vertex="1">
          <mxGeometry x="416" y="448" width="192" height="64" as="geometry" />
        </mxCell>
        <mxCell id="FjdLX2nBCPBoA4ZtYFne-13" value="&lt;font style=&quot;font-size: 18px;&quot;&gt;Step 1: MSB align&lt;/font&gt;" style="rounded=0;whiteSpace=wrap;html=1;fontSize=18;strokeColor=#000000;fillColor=#333333;strokeWidth=2;fontStyle=0;fontColor=#F5F5F5;labelBackgroundColor=none;labelBorderColor=none;align=left;" parent="1" vertex="1">
          <mxGeometry x="32" y="384" width="576" height="32" as="geometry" />
        </mxCell>
        <mxCell id="FjdLX2nBCPBoA4ZtYFne-14" value="MSB" style="rounded=0;whiteSpace=wrap;html=1;fillColor=#C3ABD0;" parent="1" vertex="1">
          <mxGeometry x="96" y="448" width="32" height="32" as="geometry" />
        </mxCell>
        <mxCell id="FjdLX2nBCPBoA4ZtYFne-15" value="" style="rounded=0;whiteSpace=wrap;html=1;fillColor=#C3ABD0;" parent="1" vertex="1">
          <mxGeometry x="128" y="448" width="32" height="32" as="geometry" />
        </mxCell>
        <mxCell id="FjdLX2nBCPBoA4ZtYFne-16" value="" style="rounded=0;whiteSpace=wrap;html=1;fillColor=#C3ABD0;" parent="1" vertex="1">
          <mxGeometry x="160" y="448" width="32" height="32" as="geometry" />
        </mxCell>
        <mxCell id="FjdLX2nBCPBoA4ZtYFne-17" value="" style="rounded=0;whiteSpace=wrap;html=1;fillColor=#C3ABD0;" parent="1" vertex="1">
          <mxGeometry x="192" y="448" width="32" height="32" as="geometry" />
        </mxCell>
        <mxCell id="FjdLX2nBCPBoA4ZtYFne-18" value="" style="rounded=0;whiteSpace=wrap;html=1;fillColor=#C3ABD0;" parent="1" vertex="1">
          <mxGeometry x="224" y="448" width="32" height="32" as="geometry" />
        </mxCell>
        <mxCell id="FjdLX2nBCPBoA4ZtYFne-19" value="" style="rounded=0;whiteSpace=wrap;html=1;fillColor=#C3ABD0;" parent="1" vertex="1">
          <mxGeometry x="256" y="448" width="32" height="32" as="geometry" />
        </mxCell>
        <mxCell id="FjdLX2nBCPBoA4ZtYFne-20" value="" style="rounded=0;whiteSpace=wrap;html=1;fillColor=#C3ABD0;" parent="1" vertex="1">
          <mxGeometry x="288" y="448" width="32" height="32" as="geometry" />
        </mxCell>
        <mxCell id="FjdLX2nBCPBoA4ZtYFne-21" value="" style="rounded=0;whiteSpace=wrap;html=1;fillColor=#C3ABD0;" parent="1" vertex="1">
          <mxGeometry x="320" y="448" width="32" height="32" as="geometry" />
        </mxCell>
        <mxCell id="FjdLX2nBCPBoA4ZtYFne-22" value="MSB" style="rounded=0;whiteSpace=wrap;html=1;fillColor=#A9C4EB;" parent="1" vertex="1">
          <mxGeometry x="96" y="480" width="32" height="32" as="geometry" />
        </mxCell>
        <mxCell id="FjdLX2nBCPBoA4ZtYFne-23" value="" style="rounded=0;whiteSpace=wrap;html=1;fillColor=#A9C4EB;" parent="1" vertex="1">
          <mxGeometry x="128" y="480" width="32" height="32" as="geometry" />
        </mxCell>
        <mxCell id="FjdLX2nBCPBoA4ZtYFne-24" value="" style="rounded=0;whiteSpace=wrap;html=1;fillColor=#A9C4EB;" parent="1" vertex="1">
          <mxGeometry x="160" y="480" width="32" height="32" as="geometry" />
        </mxCell>
        <mxCell id="FjdLX2nBCPBoA4ZtYFne-25" value="" style="rounded=0;whiteSpace=wrap;html=1;fillColor=#A9C4EB;" parent="1" vertex="1">
          <mxGeometry x="192" y="480" width="32" height="32" as="geometry" />
        </mxCell>
        <mxCell id="FjdLX2nBCPBoA4ZtYFne-26" value="MSB" style="rounded=0;whiteSpace=wrap;html=1;fillColor=#B9E0A5;" parent="1" vertex="1">
          <mxGeometry x="96" y="544" width="32" height="32" as="geometry" />
        </mxCell>
        <mxCell id="FjdLX2nBCPBoA4ZtYFne-27" value="" style="rounded=0;whiteSpace=wrap;html=1;fillColor=#B9E0A5;" parent="1" vertex="1">
          <mxGeometry x="128" y="544" width="32" height="32" as="geometry" />
        </mxCell>
        <mxCell id="FjdLX2nBCPBoA4ZtYFne-28" value="" style="rounded=0;whiteSpace=wrap;html=1;fillColor=#B9E0A5;" parent="1" vertex="1">
          <mxGeometry x="160" y="544" width="32" height="32" as="geometry" />
        </mxCell>
        <mxCell id="FjdLX2nBCPBoA4ZtYFne-29" value="" style="rounded=0;whiteSpace=wrap;html=1;fillColor=#B9E0A5;" parent="1" vertex="1">
          <mxGeometry x="192" y="544" width="32" height="32" as="geometry" />
        </mxCell>
        <mxCell id="FjdLX2nBCPBoA4ZtYFne-30" value="" style="rounded=0;whiteSpace=wrap;html=1;fillColor=#B9E0A5;" parent="1" vertex="1">
          <mxGeometry x="224" y="544" width="32" height="32" as="geometry" />
        </mxCell>
        <mxCell id="FjdLX2nBCPBoA4ZtYFne-31" value="" style="rounded=0;whiteSpace=wrap;html=1;fillColor=#B9E0A5;" parent="1" vertex="1">
          <mxGeometry x="256" y="544" width="32" height="32" as="geometry" />
        </mxCell>
        <mxCell id="FjdLX2nBCPBoA4ZtYFne-32" value="" style="rounded=0;whiteSpace=wrap;html=1;fillColor=#B9E0A5;" parent="1" vertex="1">
          <mxGeometry x="288" y="544" width="32" height="32" as="geometry" />
        </mxCell>
        <mxCell id="FjdLX2nBCPBoA4ZtYFne-33" value="" style="rounded=0;whiteSpace=wrap;html=1;fillColor=#B9E0A5;" parent="1" vertex="1">
          <mxGeometry x="320" y="544" width="32" height="32" as="geometry" />
        </mxCell>
        <mxCell id="FjdLX2nBCPBoA4ZtYFne-34" value="MSB" style="rounded=0;whiteSpace=wrap;html=1;fillColor=#FFCE9F;" parent="1" vertex="1">
          <mxGeometry x="96" y="576" width="32" height="32" as="geometry" />
        </mxCell>
        <mxCell id="FjdLX2nBCPBoA4ZtYFne-35" value="" style="rounded=0;whiteSpace=wrap;html=1;fillColor=#FFCE9F;" parent="1" vertex="1">
          <mxGeometry x="128" y="576" width="32" height="32" as="geometry" />
        </mxCell>
        <mxCell id="FjdLX2nBCPBoA4ZtYFne-38" value="&lt;font style=&quot;font-size: 18px;&quot;&gt;Step 2: Magnitude Shift&lt;/font&gt;" style="rounded=0;whiteSpace=wrap;html=1;fontSize=18;strokeColor=#000000;fillColor=#333333;strokeWidth=2;fontStyle=0;fontColor=#F5F5F5;labelBackgroundColor=none;labelBorderColor=none;align=left;" parent="1" vertex="1">
          <mxGeometry x="32" y="640" width="576" height="32" as="geometry" />
        </mxCell>
        <mxCell id="FjdLX2nBCPBoA4ZtYFne-39" value="Each weight is shifted by the magnitude amount. Positive magnitude is left-shift, negative magnitude is right-shift" style="text;html=1;strokeColor=default;fillColor=none;align=left;verticalAlign=top;whiteSpace=wrap;rounded=0;" parent="1" vertex="1">
          <mxGeometry x="416" y="704" width="192" height="64" as="geometry" />
        </mxCell>
        <mxCell id="FjdLX2nBCPBoA4ZtYFne-40" value="MSB" style="rounded=0;whiteSpace=wrap;html=1;fillColor=#C3ABD0;" parent="1" vertex="1">
          <mxGeometry x="96" y="704" width="32" height="32" as="geometry" />
        </mxCell>
        <mxCell id="FjdLX2nBCPBoA4ZtYFne-41" value="" style="rounded=0;whiteSpace=wrap;html=1;fillColor=#C3ABD0;" parent="1" vertex="1">
          <mxGeometry x="128" y="704" width="32" height="32" as="geometry" />
        </mxCell>
        <mxCell id="FjdLX2nBCPBoA4ZtYFne-42" value="" style="rounded=0;whiteSpace=wrap;html=1;fillColor=#C3ABD0;" parent="1" vertex="1">
          <mxGeometry x="160" y="704" width="32" height="32" as="geometry" />
        </mxCell>
        <mxCell id="FjdLX2nBCPBoA4ZtYFne-43" value="" style="rounded=0;whiteSpace=wrap;html=1;fillColor=#C3ABD0;" parent="1" vertex="1">
          <mxGeometry x="192" y="704" width="32" height="32" as="geometry" />
        </mxCell>
        <mxCell id="FjdLX2nBCPBoA4ZtYFne-44" value="" style="rounded=0;whiteSpace=wrap;html=1;fillColor=#C3ABD0;" parent="1" vertex="1">
          <mxGeometry x="224" y="704" width="32" height="32" as="geometry" />
        </mxCell>
        <mxCell id="FjdLX2nBCPBoA4ZtYFne-45" value="" style="rounded=0;whiteSpace=wrap;html=1;fillColor=#C3ABD0;" parent="1" vertex="1">
          <mxGeometry x="256" y="704" width="32" height="32" as="geometry" />
        </mxCell>
        <mxCell id="FjdLX2nBCPBoA4ZtYFne-46" value="" style="rounded=0;whiteSpace=wrap;html=1;fillColor=#C3ABD0;" parent="1" vertex="1">
          <mxGeometry x="288" y="704" width="32" height="32" as="geometry" />
        </mxCell>
        <mxCell id="FjdLX2nBCPBoA4ZtYFne-47" value="" style="rounded=0;whiteSpace=wrap;html=1;fillColor=#C3ABD0;" parent="1" vertex="1">
          <mxGeometry x="320" y="704" width="32" height="32" as="geometry" />
        </mxCell>
        <mxCell id="FjdLX2nBCPBoA4ZtYFne-48" value="MSB" style="rounded=0;whiteSpace=wrap;html=1;fillColor=#A9C4EB;" parent="1" vertex="1">
          <mxGeometry x="64" y="736" width="32" height="32" as="geometry" />
        </mxCell>
        <mxCell id="FjdLX2nBCPBoA4ZtYFne-49" value="" style="rounded=0;whiteSpace=wrap;html=1;fillColor=#A9C4EB;" parent="1" vertex="1">
          <mxGeometry x="96" y="736" width="32" height="32" as="geometry" />
        </mxCell>
        <mxCell id="FjdLX2nBCPBoA4ZtYFne-50" value="" style="rounded=0;whiteSpace=wrap;html=1;fillColor=#A9C4EB;" parent="1" vertex="1">
          <mxGeometry x="128" y="736" width="32" height="32" as="geometry" />
        </mxCell>
        <mxCell id="FjdLX2nBCPBoA4ZtYFne-51" value="" style="rounded=0;whiteSpace=wrap;html=1;fillColor=#A9C4EB;" parent="1" vertex="1">
          <mxGeometry x="160" y="736" width="32" height="32" as="geometry" />
        </mxCell>
        <mxCell id="FjdLX2nBCPBoA4ZtYFne-52" value="MSB" style="rounded=0;whiteSpace=wrap;html=1;fillColor=#B9E0A5;" parent="1" vertex="1">
          <mxGeometry x="128" y="800" width="32" height="32" as="geometry" />
        </mxCell>
        <mxCell id="FjdLX2nBCPBoA4ZtYFne-53" value="" style="rounded=0;whiteSpace=wrap;html=1;fillColor=#B9E0A5;" parent="1" vertex="1">
          <mxGeometry x="160" y="800" width="32" height="32" as="geometry" />
        </mxCell>
        <mxCell id="FjdLX2nBCPBoA4ZtYFne-54" value="" style="rounded=0;whiteSpace=wrap;html=1;fillColor=#B9E0A5;" parent="1" vertex="1">
          <mxGeometry x="192" y="800" width="32" height="32" as="geometry" />
        </mxCell>
        <mxCell id="FjdLX2nBCPBoA4ZtYFne-55" value="" style="rounded=0;whiteSpace=wrap;html=1;fillColor=#B9E0A5;" parent="1" vertex="1">
          <mxGeometry x="224" y="800" width="32" height="32" as="geometry" />
        </mxCell>
        <mxCell id="FjdLX2nBCPBoA4ZtYFne-56" value="" style="rounded=0;whiteSpace=wrap;html=1;fillColor=#B9E0A5;" parent="1" vertex="1">
          <mxGeometry x="256" y="800" width="32" height="32" as="geometry" />
        </mxCell>
        <mxCell id="FjdLX2nBCPBoA4ZtYFne-57" value="" style="rounded=0;whiteSpace=wrap;html=1;fillColor=#B9E0A5;" parent="1" vertex="1">
          <mxGeometry x="288" y="800" width="32" height="32" as="geometry" />
        </mxCell>
        <mxCell id="FjdLX2nBCPBoA4ZtYFne-58" value="" style="rounded=0;whiteSpace=wrap;html=1;fillColor=#B9E0A5;" parent="1" vertex="1">
          <mxGeometry x="320" y="800" width="32" height="32" as="geometry" />
        </mxCell>
        <mxCell id="FjdLX2nBCPBoA4ZtYFne-59" value="" style="rounded=0;whiteSpace=wrap;html=1;fillColor=#B9E0A5;" parent="1" vertex="1">
          <mxGeometry x="352" y="800" width="32" height="32" as="geometry" />
        </mxCell>
        <mxCell id="FjdLX2nBCPBoA4ZtYFne-60" value="MSB" style="rounded=0;whiteSpace=wrap;html=1;fillColor=#FFCE9F;" parent="1" vertex="1">
          <mxGeometry x="32" y="832" width="32" height="32" as="geometry" />
        </mxCell>
        <mxCell id="FjdLX2nBCPBoA4ZtYFne-61" value="" style="rounded=0;whiteSpace=wrap;html=1;fillColor=#FFCE9F;" parent="1" vertex="1">
          <mxGeometry x="64" y="832" width="32" height="32" as="geometry" />
        </mxCell>
        <mxCell id="FjdLX2nBCPBoA4ZtYFne-68" value="" style="rounded=0;whiteSpace=wrap;html=1;fillColor=#FFCE9F;" parent="1" vertex="1">
          <mxGeometry x="160" y="576" width="32" height="32" as="geometry" />
        </mxCell>
        <mxCell id="FjdLX2nBCPBoA4ZtYFne-69" value="" style="rounded=0;whiteSpace=wrap;html=1;fillColor=#FFCE9F;" parent="1" vertex="1">
          <mxGeometry x="192" y="576" width="32" height="32" as="geometry" />
        </mxCell>
        <mxCell id="FjdLX2nBCPBoA4ZtYFne-70" value="" style="rounded=0;whiteSpace=wrap;html=1;fillColor=#FFCE9F;" parent="1" vertex="1">
          <mxGeometry x="224" y="576" width="32" height="32" as="geometry" />
        </mxCell>
        <mxCell id="FjdLX2nBCPBoA4ZtYFne-71" value="" style="rounded=0;whiteSpace=wrap;html=1;fillColor=#FFCE9F;" parent="1" vertex="1">
          <mxGeometry x="256" y="576" width="32" height="32" as="geometry" />
        </mxCell>
        <mxCell id="FjdLX2nBCPBoA4ZtYFne-72" value="" style="rounded=0;whiteSpace=wrap;html=1;fillColor=#FFCE9F;" parent="1" vertex="1">
          <mxGeometry x="96" y="832" width="32" height="32" as="geometry" />
        </mxCell>
        <mxCell id="FjdLX2nBCPBoA4ZtYFne-73" value="" style="rounded=0;whiteSpace=wrap;html=1;fillColor=#FFCE9F;" parent="1" vertex="1">
          <mxGeometry x="128" y="832" width="32" height="32" as="geometry" />
        </mxCell>
        <mxCell id="FjdLX2nBCPBoA4ZtYFne-74" value="" style="rounded=0;whiteSpace=wrap;html=1;fillColor=#FFCE9F;" parent="1" vertex="1">
          <mxGeometry x="160" y="832" width="32" height="32" as="geometry" />
        </mxCell>
        <mxCell id="FjdLX2nBCPBoA4ZtYFne-75" value="" style="rounded=0;whiteSpace=wrap;html=1;fillColor=#FFCE9F;" parent="1" vertex="1">
          <mxGeometry x="192" y="832" width="32" height="32" as="geometry" />
        </mxCell>
        <mxCell id="FjdLX2nBCPBoA4ZtYFne-76" value="&lt;font style=&quot;font-size: 18px;&quot;&gt;Step 3: Multiply and Add Each Group&lt;/font&gt;" style="rounded=0;whiteSpace=wrap;html=1;fontSize=18;strokeColor=#000000;fillColor=#333333;strokeWidth=2;fontStyle=0;fontColor=#F5F5F5;labelBackgroundColor=none;labelBorderColor=none;align=left;" parent="1" vertex="1">
          <mxGeometry x="32" y="896" width="576" height="32" as="geometry" />
        </mxCell>
        <mxCell id="FjdLX2nBCPBoA4ZtYFne-86" value="MSB" style="rounded=0;whiteSpace=wrap;html=1;fillColor=#B5739D;" parent="1" vertex="1">
          <mxGeometry x="32" y="1248" width="32" height="32" as="geometry" />
        </mxCell>
        <mxCell id="FjdLX2nBCPBoA4ZtYFne-87" value="" style="rounded=0;whiteSpace=wrap;html=1;fillColor=#B5739D;" parent="1" vertex="1">
          <mxGeometry x="64" y="1248" width="32" height="32" as="geometry" />
        </mxCell>
        <mxCell id="FjdLX2nBCPBoA4ZtYFne-88" value="" style="rounded=0;whiteSpace=wrap;html=1;fillColor=#B5739D;" parent="1" vertex="1">
          <mxGeometry x="96" y="1248" width="32" height="32" as="geometry" />
        </mxCell>
        <mxCell id="FjdLX2nBCPBoA4ZtYFne-89" value="" style="rounded=0;whiteSpace=wrap;html=1;fillColor=#B5739D;" parent="1" vertex="1">
          <mxGeometry x="128" y="1248" width="32" height="32" as="geometry" />
        </mxCell>
        <mxCell id="FjdLX2nBCPBoA4ZtYFne-90" value="" style="rounded=0;whiteSpace=wrap;html=1;fillColor=#B5739D;" parent="1" vertex="1">
          <mxGeometry x="160" y="1248" width="32" height="32" as="geometry" />
        </mxCell>
        <mxCell id="FjdLX2nBCPBoA4ZtYFne-91" value="" style="rounded=0;whiteSpace=wrap;html=1;fillColor=#B5739D;" parent="1" vertex="1">
          <mxGeometry x="192" y="1248" width="32" height="32" as="geometry" />
        </mxCell>
        <mxCell id="FjdLX2nBCPBoA4ZtYFne-92" value="" style="rounded=0;whiteSpace=wrap;html=1;fillColor=#B5739D;" parent="1" vertex="1">
          <mxGeometry x="224" y="1248" width="32" height="32" as="geometry" />
        </mxCell>
        <mxCell id="FjdLX2nBCPBoA4ZtYFne-93" value="" style="rounded=0;whiteSpace=wrap;html=1;fillColor=#B5739D;" parent="1" vertex="1">
          <mxGeometry x="256" y="1248" width="32" height="32" as="geometry" />
        </mxCell>
        <mxCell id="FjdLX2nBCPBoA4ZtYFne-94" value="" style="rounded=0;whiteSpace=wrap;html=1;fillColor=#B5739D;" parent="1" vertex="1">
          <mxGeometry x="288" y="1248" width="32" height="32" as="geometry" />
        </mxCell>
        <mxCell id="FjdLX2nBCPBoA4ZtYFne-95" value="" style="rounded=0;whiteSpace=wrap;html=1;fillColor=#B5739D;" parent="1" vertex="1">
          <mxGeometry x="320" y="1248" width="32" height="32" as="geometry" />
        </mxCell>
        <mxCell id="FjdLX2nBCPBoA4ZtYFne-96" value="" style="rounded=0;whiteSpace=wrap;html=1;fillColor=#B5739D;" parent="1" vertex="1">
          <mxGeometry x="352" y="1248" width="32" height="32" as="geometry" />
        </mxCell>
        <mxCell id="FjdLX2nBCPBoA4ZtYFne-97" value="" style="rounded=0;whiteSpace=wrap;html=1;fillColor=#B5739D;" parent="1" vertex="1">
          <mxGeometry x="384" y="1248" width="32" height="32" as="geometry" />
        </mxCell>
        <mxCell id="FjdLX2nBCPBoA4ZtYFne-98" value="" style="rounded=0;whiteSpace=wrap;html=1;fillColor=#B5739D;" parent="1" vertex="1">
          <mxGeometry x="416" y="1248" width="32" height="32" as="geometry" />
        </mxCell>
        <mxCell id="FjdLX2nBCPBoA4ZtYFne-99" value="MSB" style="rounded=0;whiteSpace=wrap;html=1;fillColor=#F19C99;" parent="1" vertex="1">
          <mxGeometry x="32" y="1312" width="32" height="32" as="geometry" />
        </mxCell>
        <mxCell id="FjdLX2nBCPBoA4ZtYFne-100" value="" style="rounded=0;whiteSpace=wrap;html=1;fillColor=#F19C99;" parent="1" vertex="1">
          <mxGeometry x="64" y="1312" width="32" height="32" as="geometry" />
        </mxCell>
        <mxCell id="FjdLX2nBCPBoA4ZtYFne-101" value="" style="rounded=0;whiteSpace=wrap;html=1;fillColor=#F19C99;" parent="1" vertex="1">
          <mxGeometry x="96" y="1312" width="32" height="32" as="geometry" />
        </mxCell>
        <mxCell id="FjdLX2nBCPBoA4ZtYFne-102" value="" style="rounded=0;whiteSpace=wrap;html=1;fillColor=#F19C99;" parent="1" vertex="1">
          <mxGeometry x="128" y="1312" width="32" height="32" as="geometry" />
        </mxCell>
        <mxCell id="FjdLX2nBCPBoA4ZtYFne-103" value="" style="rounded=0;whiteSpace=wrap;html=1;fillColor=#F19C99;" parent="1" vertex="1">
          <mxGeometry x="160" y="1312" width="32" height="32" as="geometry" />
        </mxCell>
        <mxCell id="FjdLX2nBCPBoA4ZtYFne-104" value="" style="rounded=0;whiteSpace=wrap;html=1;fillColor=#F19C99;" parent="1" vertex="1">
          <mxGeometry x="192" y="1312" width="32" height="32" as="geometry" />
        </mxCell>
        <mxCell id="FjdLX2nBCPBoA4ZtYFne-105" value="" style="rounded=0;whiteSpace=wrap;html=1;fillColor=#F19C99;" parent="1" vertex="1">
          <mxGeometry x="224" y="1312" width="32" height="32" as="geometry" />
        </mxCell>
        <mxCell id="FjdLX2nBCPBoA4ZtYFne-106" value="" style="rounded=0;whiteSpace=wrap;html=1;fillColor=#F19C99;" parent="1" vertex="1">
          <mxGeometry x="256" y="1312" width="32" height="32" as="geometry" />
        </mxCell>
        <mxCell id="FjdLX2nBCPBoA4ZtYFne-107" value="" style="rounded=0;whiteSpace=wrap;html=1;fillColor=#F19C99;" parent="1" vertex="1">
          <mxGeometry x="288" y="1312" width="32" height="32" as="geometry" />
        </mxCell>
        <mxCell id="FjdLX2nBCPBoA4ZtYFne-108" value="" style="rounded=0;whiteSpace=wrap;html=1;fillColor=#F19C99;" parent="1" vertex="1">
          <mxGeometry x="320" y="1312" width="32" height="32" as="geometry" />
        </mxCell>
        <mxCell id="FjdLX2nBCPBoA4ZtYFne-109" value="" style="rounded=0;whiteSpace=wrap;html=1;fillColor=#F19C99;" parent="1" vertex="1">
          <mxGeometry x="352" y="1312" width="32" height="32" as="geometry" />
        </mxCell>
        <mxCell id="FjdLX2nBCPBoA4ZtYFne-110" value="" style="rounded=0;whiteSpace=wrap;html=1;fillColor=#F19C99;" parent="1" vertex="1">
          <mxGeometry x="384" y="1312" width="32" height="32" as="geometry" />
        </mxCell>
        <mxCell id="FjdLX2nBCPBoA4ZtYFne-111" value="" style="rounded=0;whiteSpace=wrap;html=1;fillColor=#F19C99;" parent="1" vertex="1">
          <mxGeometry x="416" y="1312" width="32" height="32" as="geometry" />
        </mxCell>
        <mxCell id="FjdLX2nBCPBoA4ZtYFne-112" value="+" style="text;html=1;strokeColor=none;fillColor=none;align=center;verticalAlign=middle;whiteSpace=wrap;rounded=0;" parent="1" vertex="1">
          <mxGeometry x="32" y="1280" width="32" height="32" as="geometry" />
        </mxCell>
        <mxCell id="FjdLX2nBCPBoA4ZtYFne-113" value="=" style="text;html=1;strokeColor=none;fillColor=none;align=center;verticalAlign=middle;whiteSpace=wrap;rounded=0;" parent="1" vertex="1">
          <mxGeometry x="32" y="1344" width="32" height="64" as="geometry" />
        </mxCell>
        <mxCell id="FjdLX2nBCPBoA4ZtYFne-114" value="MSB" style="rounded=0;whiteSpace=wrap;html=1;fillColor=#FFFFFF;" parent="1" vertex="1">
          <mxGeometry x="32" y="1408" width="32" height="32" as="geometry" />
        </mxCell>
        <mxCell id="FjdLX2nBCPBoA4ZtYFne-115" value="" style="rounded=0;whiteSpace=wrap;html=1;fillColor=#FFFFFF;" parent="1" vertex="1">
          <mxGeometry x="64" y="1408" width="32" height="32" as="geometry" />
        </mxCell>
        <mxCell id="FjdLX2nBCPBoA4ZtYFne-116" value="" style="rounded=0;whiteSpace=wrap;html=1;fillColor=#FFFFFF;" parent="1" vertex="1">
          <mxGeometry x="96" y="1408" width="32" height="32" as="geometry" />
        </mxCell>
        <mxCell id="FjdLX2nBCPBoA4ZtYFne-117" value="" style="rounded=0;whiteSpace=wrap;html=1;fillColor=#FFFFFF;" parent="1" vertex="1">
          <mxGeometry x="128" y="1408" width="32" height="32" as="geometry" />
        </mxCell>
        <mxCell id="FjdLX2nBCPBoA4ZtYFne-118" value="" style="rounded=0;whiteSpace=wrap;html=1;fillColor=#FFFFFF;" parent="1" vertex="1">
          <mxGeometry x="160" y="1408" width="32" height="32" as="geometry" />
        </mxCell>
        <mxCell id="FjdLX2nBCPBoA4ZtYFne-119" value="" style="rounded=0;whiteSpace=wrap;html=1;fillColor=#FFFFFF;" parent="1" vertex="1">
          <mxGeometry x="192" y="1408" width="32" height="32" as="geometry" />
        </mxCell>
        <mxCell id="FjdLX2nBCPBoA4ZtYFne-120" value="" style="rounded=0;whiteSpace=wrap;html=1;fillColor=#FFFFFF;" parent="1" vertex="1">
          <mxGeometry x="224" y="1408" width="32" height="32" as="geometry" />
        </mxCell>
        <mxCell id="FjdLX2nBCPBoA4ZtYFne-121" value="" style="rounded=0;whiteSpace=wrap;html=1;fillColor=#FFFFFF;" parent="1" vertex="1">
          <mxGeometry x="256" y="1408" width="32" height="32" as="geometry" />
        </mxCell>
        <mxCell id="FjdLX2nBCPBoA4ZtYFne-122" value="" style="rounded=0;whiteSpace=wrap;html=1;fillColor=#FFFFFF;" parent="1" vertex="1">
          <mxGeometry x="288" y="1408" width="32" height="32" as="geometry" />
        </mxCell>
        <mxCell id="FjdLX2nBCPBoA4ZtYFne-123" value="" style="rounded=0;whiteSpace=wrap;html=1;fillColor=#FFFFFF;" parent="1" vertex="1">
          <mxGeometry x="320" y="1408" width="32" height="32" as="geometry" />
        </mxCell>
        <mxCell id="FjdLX2nBCPBoA4ZtYFne-124" value="" style="rounded=0;whiteSpace=wrap;html=1;fillColor=#FFFFFF;" parent="1" vertex="1">
          <mxGeometry x="352" y="1408" width="32" height="32" as="geometry" />
        </mxCell>
        <mxCell id="FjdLX2nBCPBoA4ZtYFne-125" value="" style="rounded=0;whiteSpace=wrap;html=1;fillColor=#FFFFFF;" parent="1" vertex="1">
          <mxGeometry x="384" y="1408" width="32" height="32" as="geometry" />
        </mxCell>
        <mxCell id="FjdLX2nBCPBoA4ZtYFne-126" value="" style="rounded=0;whiteSpace=wrap;html=1;fillColor=#FFFFFF;" parent="1" vertex="1">
          <mxGeometry x="416" y="1408" width="32" height="32" as="geometry" />
        </mxCell>
        <mxCell id="FjdLX2nBCPBoA4ZtYFne-129" value="MSB" style="rounded=0;whiteSpace=wrap;html=1;fillColor=#C3ABD0;" parent="1" vertex="1">
          <mxGeometry x="96" y="960" width="32" height="32" as="geometry" />
        </mxCell>
        <mxCell id="FjdLX2nBCPBoA4ZtYFne-130" value="" style="rounded=0;whiteSpace=wrap;html=1;fillColor=#C3ABD0;" parent="1" vertex="1">
          <mxGeometry x="128" y="960" width="32" height="32" as="geometry" />
        </mxCell>
        <mxCell id="FjdLX2nBCPBoA4ZtYFne-131" value="" style="rounded=0;whiteSpace=wrap;html=1;fillColor=#C3ABD0;" parent="1" vertex="1">
          <mxGeometry x="160" y="960" width="32" height="32" as="geometry" />
        </mxCell>
        <mxCell id="FjdLX2nBCPBoA4ZtYFne-132" value="" style="rounded=0;whiteSpace=wrap;html=1;fillColor=#C3ABD0;" parent="1" vertex="1">
          <mxGeometry x="192" y="960" width="32" height="32" as="geometry" />
        </mxCell>
        <mxCell id="FjdLX2nBCPBoA4ZtYFne-133" value="" style="rounded=0;whiteSpace=wrap;html=1;fillColor=#C3ABD0;" parent="1" vertex="1">
          <mxGeometry x="224" y="960" width="32" height="32" as="geometry" />
        </mxCell>
        <mxCell id="FjdLX2nBCPBoA4ZtYFne-134" value="" style="rounded=0;whiteSpace=wrap;html=1;fillColor=#C3ABD0;" parent="1" vertex="1">
          <mxGeometry x="256" y="960" width="32" height="32" as="geometry" />
        </mxCell>
        <mxCell id="FjdLX2nBCPBoA4ZtYFne-135" value="" style="rounded=0;whiteSpace=wrap;html=1;fillColor=#C3ABD0;" parent="1" vertex="1">
          <mxGeometry x="288" y="960" width="32" height="32" as="geometry" />
        </mxCell>
        <mxCell id="FjdLX2nBCPBoA4ZtYFne-136" value="" style="rounded=0;whiteSpace=wrap;html=1;fillColor=#C3ABD0;" parent="1" vertex="1">
          <mxGeometry x="320" y="960" width="32" height="32" as="geometry" />
        </mxCell>
        <mxCell id="FjdLX2nBCPBoA4ZtYFne-137" value="MSB" style="rounded=0;whiteSpace=wrap;html=1;fillColor=#A9C4EB;" parent="1" vertex="1">
          <mxGeometry x="64" y="1024" width="32" height="32" as="geometry" />
        </mxCell>
        <mxCell id="FjdLX2nBCPBoA4ZtYFne-138" value="" style="rounded=0;whiteSpace=wrap;html=1;fillColor=#A9C4EB;" parent="1" vertex="1">
          <mxGeometry x="96" y="1024" width="32" height="32" as="geometry" />
        </mxCell>
        <mxCell id="FjdLX2nBCPBoA4ZtYFne-139" value="" style="rounded=0;whiteSpace=wrap;html=1;fillColor=#A9C4EB;" parent="1" vertex="1">
          <mxGeometry x="128" y="1024" width="32" height="32" as="geometry" />
        </mxCell>
        <mxCell id="FjdLX2nBCPBoA4ZtYFne-140" value="" style="rounded=0;whiteSpace=wrap;html=1;fillColor=#A9C4EB;" parent="1" vertex="1">
          <mxGeometry x="160" y="1024" width="32" height="32" as="geometry" />
        </mxCell>
        <mxCell id="FjdLX2nBCPBoA4ZtYFne-141" value="MSB" style="rounded=0;whiteSpace=wrap;html=1;fillColor=#B9E0A5;" parent="1" vertex="1">
          <mxGeometry x="128" y="1088" width="32" height="32" as="geometry" />
        </mxCell>
        <mxCell id="FjdLX2nBCPBoA4ZtYFne-142" value="" style="rounded=0;whiteSpace=wrap;html=1;fillColor=#B9E0A5;" parent="1" vertex="1">
          <mxGeometry x="160" y="1088" width="32" height="32" as="geometry" />
        </mxCell>
        <mxCell id="FjdLX2nBCPBoA4ZtYFne-143" value="" style="rounded=0;whiteSpace=wrap;html=1;fillColor=#B9E0A5;" parent="1" vertex="1">
          <mxGeometry x="192" y="1088" width="32" height="32" as="geometry" />
        </mxCell>
        <mxCell id="FjdLX2nBCPBoA4ZtYFne-144" value="" style="rounded=0;whiteSpace=wrap;html=1;fillColor=#B9E0A5;" parent="1" vertex="1">
          <mxGeometry x="224" y="1088" width="32" height="32" as="geometry" />
        </mxCell>
        <mxCell id="FjdLX2nBCPBoA4ZtYFne-145" value="" style="rounded=0;whiteSpace=wrap;html=1;fillColor=#B9E0A5;" parent="1" vertex="1">
          <mxGeometry x="256" y="1088" width="32" height="32" as="geometry" />
        </mxCell>
        <mxCell id="FjdLX2nBCPBoA4ZtYFne-146" value="" style="rounded=0;whiteSpace=wrap;html=1;fillColor=#B9E0A5;" parent="1" vertex="1">
          <mxGeometry x="288" y="1088" width="32" height="32" as="geometry" />
        </mxCell>
        <mxCell id="FjdLX2nBCPBoA4ZtYFne-147" value="" style="rounded=0;whiteSpace=wrap;html=1;fillColor=#B9E0A5;" parent="1" vertex="1">
          <mxGeometry x="320" y="1088" width="32" height="32" as="geometry" />
        </mxCell>
        <mxCell id="FjdLX2nBCPBoA4ZtYFne-148" value="" style="rounded=0;whiteSpace=wrap;html=1;fillColor=#B9E0A5;" parent="1" vertex="1">
          <mxGeometry x="352" y="1088" width="32" height="32" as="geometry" />
        </mxCell>
        <mxCell id="FjdLX2nBCPBoA4ZtYFne-149" value="MSB" style="rounded=0;whiteSpace=wrap;html=1;fillColor=#FFCE9F;" parent="1" vertex="1">
          <mxGeometry x="32" y="1152" width="32" height="32" as="geometry" />
        </mxCell>
        <mxCell id="FjdLX2nBCPBoA4ZtYFne-150" value="" style="rounded=0;whiteSpace=wrap;html=1;fillColor=#FFCE9F;" parent="1" vertex="1">
          <mxGeometry x="64" y="1152" width="32" height="32" as="geometry" />
        </mxCell>
        <mxCell id="FjdLX2nBCPBoA4ZtYFne-151" value="" style="rounded=0;whiteSpace=wrap;html=1;fillColor=#FFCE9F;" parent="1" vertex="1">
          <mxGeometry x="96" y="1152" width="32" height="32" as="geometry" />
        </mxCell>
        <mxCell id="FjdLX2nBCPBoA4ZtYFne-152" value="" style="rounded=0;whiteSpace=wrap;html=1;fillColor=#FFCE9F;" parent="1" vertex="1">
          <mxGeometry x="128" y="1152" width="32" height="32" as="geometry" />
        </mxCell>
        <mxCell id="FjdLX2nBCPBoA4ZtYFne-153" value="" style="rounded=0;whiteSpace=wrap;html=1;fillColor=#FFCE9F;" parent="1" vertex="1">
          <mxGeometry x="160" y="1152" width="32" height="32" as="geometry" />
        </mxCell>
        <mxCell id="FjdLX2nBCPBoA4ZtYFne-154" value="" style="rounded=0;whiteSpace=wrap;html=1;fillColor=#FFCE9F;" parent="1" vertex="1">
          <mxGeometry x="192" y="1152" width="32" height="32" as="geometry" />
        </mxCell>
        <mxCell id="FjdLX2nBCPBoA4ZtYFne-155" value="*" style="text;html=1;strokeColor=none;fillColor=none;align=center;verticalAlign=middle;whiteSpace=wrap;rounded=0;" parent="1" vertex="1">
          <mxGeometry x="32" y="992" width="32" height="32" as="geometry" />
        </mxCell>
        <mxCell id="FjdLX2nBCPBoA4ZtYFne-156" value="+" style="text;html=1;strokeColor=none;fillColor=none;align=center;verticalAlign=middle;whiteSpace=wrap;rounded=0;" parent="1" vertex="1">
          <mxGeometry x="32" y="1056" width="32" height="32" as="geometry" />
        </mxCell>
        <mxCell id="FjdLX2nBCPBoA4ZtYFne-157" value="*" style="text;html=1;strokeColor=none;fillColor=none;align=center;verticalAlign=middle;whiteSpace=wrap;rounded=0;" parent="1" vertex="1">
          <mxGeometry x="32" y="1120" width="32" height="32" as="geometry" />
        </mxCell>
        <mxCell id="FjdLX2nBCPBoA4ZtYFne-158" value="=" style="text;html=1;strokeColor=none;fillColor=none;align=center;verticalAlign=middle;whiteSpace=wrap;rounded=0;" parent="1" vertex="1">
          <mxGeometry x="32" y="1184" width="32" height="64" as="geometry" />
        </mxCell>
        <mxCell id="FjdLX2nBCPBoA4ZtYFne-159" value="" style="rounded=0;whiteSpace=wrap;html=1;fillColor=#FFFFFF;" parent="1" vertex="1">
          <mxGeometry x="448" y="1408" width="32" height="32" as="geometry" />
        </mxCell>
        <mxCell id="FjdLX2nBCPBoA4ZtYFne-160" value="" style="rounded=0;whiteSpace=wrap;html=1;fillColor=none;" parent="1" vertex="1">
          <mxGeometry x="32" y="960" width="320" height="32" as="geometry" />
        </mxCell>
        <mxCell id="FjdLX2nBCPBoA4ZtYFne-161" value="" style="rounded=0;whiteSpace=wrap;html=1;fillColor=none;" parent="1" vertex="1">
          <mxGeometry x="32" y="1024" width="320" height="32" as="geometry" />
        </mxCell>
        <mxCell id="FjdLX2nBCPBoA4ZtYFne-162" value="" style="rounded=0;whiteSpace=wrap;html=1;fillColor=none;" parent="1" vertex="1">
          <mxGeometry x="32" y="1088" width="352" height="32" as="geometry" />
        </mxCell>
        <mxCell id="FjdLX2nBCPBoA4ZtYFne-163" value="" style="rounded=0;whiteSpace=wrap;html=1;fillColor=none;" parent="1" vertex="1">
          <mxGeometry x="32" y="1152" width="352" height="32" as="geometry" />
        </mxCell>
      </root>
    </mxGraphModel>
  </diagram>
</mxfile>
